<svg xmlns="http://www.w3.org/2000/svg" xmlns:xlink="http://www.w3.org/1999/xlink" width="512" zoomAndPan="magnify" viewBox="0 0 384 383.999986" height="512" preserveAspectRatio="xMidYMid meet" version="1.0"><defs><g/></defs><rect x="-38.4" width="460.8" fill="#ffffff" y="-38.399999" height="460.799983" fill-opacity="1"/><rect x="-38.4" width="460.8" fill="#ffffff" y="-38.399999" height="460.799983" fill-opacity="1"/><g fill="#000000" fill-opacity="1"><g transform="translate(75.437726, 257.24998)"><g><path d="M 61.5625 0 L 9.90625 0 C 8.457031 0 7.734375 -0.71875 7.734375 -2.15625 L 7.734375 -11.34375 C 7.734375 -12.78125 8.457031 -13.5 9.90625 -13.5 L 23.765625 -13.5 L 23.765625 -115.734375 L 9.90625 -115.734375 C 8.457031 -115.734375 7.734375 -116.457031 7.734375 -117.90625 L 7.734375 -127.078125 C 7.734375 -128.515625 8.457031 -129.234375 9.90625 -129.234375 L 58.5 -129.234375 C 78.414062 -129.234375 94.253906 -123.503906 106.015625 -112.046875 C 117.773438 -100.585938 123.65625 -84.835938 123.65625 -64.796875 C 123.65625 -44.753906 118.078125 -28.941406 106.921875 -17.359375 C 95.765625 -5.785156 80.644531 0 61.5625 0 Z M 39.421875 -13.5 L 57.234375 -13.5 C 90.597656 -13.738281 107.28125 -30.71875 107.28125 -64.4375 C 107.28125 -80.632812 102.988281 -93.234375 94.40625 -102.234375 C 85.832031 -111.234375 73.265625 -115.734375 56.703125 -115.734375 L 39.421875 -115.734375 Z M 39.421875 -13.5 "/></g></g></g><g fill="#000000" fill-opacity="1"><g transform="translate(208.637723, 257.24998)"><g><path d="M 104.40625 0 L 11.15625 0 C 9.476562 0 8.640625 -0.78125 8.640625 -2.34375 L 8.640625 -10.078125 C 8.640625 -11.273438 9.835938 -13.316406 12.234375 -16.203125 L 85.3125 -115.734375 L 23.765625 -115.734375 L 23.765625 -101.15625 C 23.765625 -99.476562 22.921875 -98.640625 21.234375 -98.640625 L 11.15625 -98.640625 C 9.476562 -98.640625 8.640625 -99.476562 8.640625 -101.15625 L 8.640625 -126.90625 C 8.640625 -128.457031 9.476562 -129.234375 11.15625 -129.234375 L 104.40625 -129.234375 C 105.957031 -129.234375 106.734375 -128.457031 106.734375 -126.90625 L 106.734375 -120.234375 C 106.734375 -118.203125 105.535156 -115.742188 103.140625 -112.859375 L 30.0625 -13.5 L 91.796875 -13.5 L 91.796875 -28.078125 C 91.796875 -29.753906 92.578125 -30.59375 94.140625 -30.59375 L 104.40625 -30.59375 C 105.957031 -30.59375 106.734375 -29.753906 106.734375 -28.078125 L 106.734375 -2.34375 C 106.734375 -0.78125 105.957031 0 104.40625 0 Z M 104.40625 0 "/></g></g></g></svg>