<svg width="24" height="22" viewBox="0 0 24 22" fill="none" xmlns="http://www.w3.org/2000/svg">
<path d="M10.3344 2.75C8.88213 2.75 7.46246 3.14588 6.25494 3.88757C5.04741 4.62927 4.10626 5.68347 3.55049 6.91686C2.99473 8.15026 2.84932 9.50745 3.13264 10.8168C3.41597 12.1262 4.11531 13.3289 5.14222 14.2729C6.16914 15.2169 7.47752 15.8598 8.90189 16.1202C10.3263 16.3807 11.8027 16.247 13.1444 15.7361C14.4861 15.2252 15.6329 14.3601 16.4398 13.25C17.2466 12.14 17.6773 10.835 17.6773 9.49996C17.6772 7.70979 16.9035 5.99298 15.5265 4.72714C14.1494 3.46131 12.2818 2.75011 10.3344 2.75Z" stroke="#081441" stroke-miterlimit="10"/>
<path d="M15.8127 14.5359L20.9409 19.25" stroke="#081441" stroke-miterlimit="10" stroke-linecap="round"/>
</svg>
